PathFileType	4	(X/Y/Z)	C:/Users/opensim2020/Desktop/walking_exp_matlab/subject01_walking14_straight_03.trc																																																																																																																												
DataRate	CameraRate	NumFrames	NumMarkers	Units	OrigDataRate	OrigDataStartFrame	OrigNumFrames																																																																																																																								
100	100	4	42	mm	100	1703	121																																																																																																																								
Frame#	Time	LFHD			RFHD			LBHD			RBHD			C7			T10			CLAV			STRN			RBAK			LSHO			LUPA			LELB			LFRM			LWRA			LWRB			LFIN			RSHO			RUPA			RELB			RFRM			RWRA			RWRB			RFIN			LASI			RASI			LPSI			RPSI			LTHI			LKNE			LTIB			LANK			LHEE			LTOE			RTHI			RKNE			RTIB			RANK			RHEE			RTOE			*39			*40			*41		
		X1	Y1	Z1	X2	Y2	Z2	X3	Y3	Z3	X4	Y4	Z4	X5	Y5	Z5	X6	Y6	Z6	X7	Y7	Z7	X8	Y8	Z8	X9	Y9	Z9	X10	Y10	Z10	X11	Y11	Z11	X12	Y12	Z12	X13	Y13	Z13	X14	Y14	Z14	X15	Y15	Z15	X16	Y16	Z16	X17	Y17	Z17	X18	Y18	Z18	X19	Y19	Z19	X20	Y20	Z20	X21	Y21	Z21	X22	Y22	Z22	X23	Y23	Z23	X24	Y24	Z24	X25	Y25	Z25	X26	Y26	Z26	X27	Y27	Z27	X28	Y28	Z28	X29	Y29	Z29	X30	Y30	Z30	X31	Y31	Z31	X32	Y32	Z32	X33	Y33	Z33	X34	Y34	Z34	X35	Y35	Z35	X36	Y36	Z36	X37	Y37	Z37	X38	Y38	Z38	X39	Y39	Z39	X40	Y40	Z40	X41	Y41	Z41	X42	Y42	Z42
																																																																																																																															
106	1.05	641.01898	1649.0116	1386.26184	701.96594	1658.92004	1481.19067	540.19788	1608.04553	1446.85742	602.32288	1616.99329	1548.75134	511.21231	1417.42188	1477.10974	472.24722	1121.67505	1481.79321	655.35205	1345.87244	1461.69055	694.50427	1191.99927	1453.55786	458.07565	1223.0166	1550.89075	576.16223	1380.34546	1310.61353	536.93054	1207.7677	1217.1554	532.24316	1057.36853	1189.5752	636.40472	1003.76813	1164.41833	772.0567	986.37854	1181.39929	740.58148	942.422	1157.53406	822.16644	935.96771	1141.02612	599.40344	1382.14954	1617.8324	499.34811	1198.55664	1714.08459	483.17847	1078.7196	1727.90149	468.7381	965.52826	1770.52283	504.57056	826.23645	1773.41895	460.61673	847.03302	1804.27502	467.17642	761.86493	1818.28809	634.48578	915.36182	1352.80115	669.63849	926.57257	1564.74451	459.56583	924.09113	1435.57397	483.59872	928.66669	1579.64709	548.50128	583.34583	1307.50818	509.75323	452.70059	1317.71472	362.6463	331.89194	1320.10388	211.73021	174.7856	1372.22632	171.44432	190.54379	1429.1217	256.77042	35.96439	1371.2063	707.57465	607.06757	1639.65356	773.31354	463.84592	1613.11292	753.2959	288.15149	1636.50256	748.62628	78.82396	1600.84497	695.75708	37.85581	1558.6427	889.30579	46.0324	1581.65308	682.20099	1691.62061	1463.92444	1973.19885	1023.53973	-3101.88892	2012.48511	1022.05042	-3140.74146
107	1.06	653.78534	1650.12109	1387.50964	715.20013	1659.94458	1482.19299	553.00519	1608.6925	1448.54163	616.06689	1617.46045	1550.18042	524.73425	1418.11169	1478.19824	485.65036	1122.67334	1481.72998	669.08185	1346.82861	1462.29944	708.15082	1192.93542	1453.59692	470.91574	1223.98193	1551.45288	589.29053	1381.38184	1311.60083	547.73163	1208.89209	1218.58765	541.35223	1059.36243	1190.86584	644.80219	1004.25378	1165.15869	780.15625	983.96594	1181.8949	747.81415	940.79333	1157.67334	829.27283	932.72473	1141.15784	613.66754	1382.77783	1618.54041	515.13678	1198.26819	1715.01685	499.78757	1078.40381	1728.59973	486.7789	965.09247	1771.14185	523.62384	826.02325	1773.48987	480.01913	846.66284	1804.91345	487.0835	761.25488	1818.62	648.2345	915.78491	1353.62366	683.13721	928.23615	1565.38965	473.12064	924.92438	1435.12805	497.21515	930.86365	1578.94055	568.73572	582.05975	1307.24438	532.85156	451.06314	1316.61523	383.78726	334.11005	1320.32947	227.67607	182.07962	1372.4469	190.69514	200.51239	1430.61584	261.61896	39.75796	1372.19739	721.46869	607.88025	1640.26184	781.86121	462.06677	1614.43677	757.06464	286.56479	1637.29053	749.50348	78.38965	1600.38928	695.62921	38.06819	1558.78479	889.95874	44.9243	1580.40833	695.55762	1692.56299	1465.17261	1973.08362	1023.935	-3102.04175	2012.56213	1022.07489	-3140.89136
108	1.07	666.56805	1651.32251	1388.82385	728.52167	1660.94336	1483.10498	566.14044	1609.45032	1450.26868	629.85883	1617.97668	1551.53955	538.19543	1418.99353	1479.4231	498.93631	1123.70618	1481.6073	682.63361	1347.78552	1462.55383	721.56177	1193.86853	1453.48096	484.90247	1224.71826	1551.87769	602.14404	1382.5332	1312.36816	557.68048	1210.49768	1219.0625	550.29657	1060.98572	1191.86938	652.79413	1004.40344	1166.00928	787.68127	981.1004	1182.38196	754.3974	938.91644	1158.23206	835.55981	928.84857	1141.43945	628.03052	1383.64734	1619.05652	531.23773	1198.18945	1715.86133	516.76263	1078.36121	1729.35449	505.11749	964.71558	1771.65466	543.41223	826.09717	1773.3772	499.87057	846.18121	1805.10278	507.91611	760.94373	1818.85059	661.73462	916.59253	1354.08484	696.24835	929.90082	1565.99622	486.38016	925.89294	1434.87805	510.38757	933.08435	1578.56787	589.27588	580.81201	1307.11292	556.39526	449.61533	1315.69666	404.39655	336.64322	1320.05273	244.64891	190.27711	1373.22498	210.79678	211.32828	1431.83203	269.76651	44.56952	1373.10938	734.40759	608.25122	1640.78625	789.14233	460.48801	1615.93054	760.36084	285.62848	1637.6167	750.20624	78.53634	1600.30188	695.66528	38.21697	1558.74231	890.24786	43.81965	1579.84021	708.38379	1693.45398	1466.64172	1973.15247	1023.37103	-3102.03125	2012.52295	1021.96881	-3140.729
109	1.08	680.1134	1652.51636	1390.52002	741.93115	1661.9823	1483.8197	579.47571	1610.40344	1451.67151	643.67621	1618.65137	1552.58398	551.75427	1420.04028	1480.37195	511.97366	1124.94275	1481.64709	696.00323	1348.74194	1462.50208	734.73425	1194.82947	1453.09766	498.74814	1225.70435	1552.36353	614.71796	1383.88562	1312.89038	568.3772	1212.04175	1219.9303	558.8042	1062.83496	1193.18201	660.22552	1004.21912	1166.95557	794.729	977.82703	1182.89795	760.15857	936.11243	1158.60303	841.08295	924.30029	1141.72217	642.42114	1384.60596	1619.32983	547.65979	1198.38196	1716.72803	533.94598	1078.3252	1729.92029	523.91205	964.47742	1772.047	563.74634	826.21527	1772.92419	520.30902	845.83521	1805.2146	529.69867	760.77448	1818.85632	674.67285	917.72601	1354.87781	709.12115	931.63489	1566.48438	499.56653	926.78723	1434.74121	523.49988	934.92657	1578.40625	609.76184	579.88165	1307.02502	580.3678	448.0589	1314.70325	425.98328	339.47342	1319.72839	263.41351	198.65166	1374.41809	231.61308	221.55704	1432.99805	281.38287	50.77806	1374.23511	745.01599	608.90784	1641.20313	795.70502	459.5213	1617.02258	763.4549	284.85321	1637.08154	750.2016	78.44993	1600.01843	695.60645	38.26674	1558.66553	890.52704	43.07414	1579.88342	721.17407	1694.41284	1467.95178	1973.21143	1023.59662	-3101.99463	2012.50598	1022.17078	-3140.73975
